<svg width="11" height="10" viewBox="0 0 11 10" fill="none" xmlns="http://www.w3.org/2000/svg">
<path fill-rule="evenodd" clip-rule="evenodd" d="M6.69766 3.74163V6.19539C6.69766 6.62153 6.60391 7.00079 6.41641 7.33318C6.23175 7.66272 5.9647 7.92267 5.61527 8.11301C5.26584 8.30051 4.84823 8.39426 4.36243 8.39426C3.87664 8.39426 3.45902 8.30051 3.10959 8.11301C2.763 7.92267 2.49595 7.66272 2.30845 7.33318C2.12095 7.00079 2.0272 6.62153 2.0272 6.19539V0.502213H0.970387V6.28062C0.970387 6.87721 1.10959 7.40988 1.388 7.87863C1.66925 8.34454 2.06414 8.71244 2.57266 8.98233C3.08118 9.24937 3.67777 9.38289 4.36243 9.38289C5.04709 9.38289 5.64368 9.24937 6.1522 8.98233C6.66073 8.71244 7.05419 8.34454 7.3326 7.87863C7.61385 7.40988 7.75448 6.87721 7.75448 6.28062V3.74163H6.69766Z" fill="#6D28D9"/>
<path fill-rule="evenodd" clip-rule="evenodd" d="M4.97855 6.14348L4.97855 3.68972C4.97855 3.26358 5.0723 2.88432 5.2598 2.55193C5.44446 2.22239 5.7115 1.96244 6.06094 1.7721C6.41037 1.5846 6.82798 1.49085 7.31378 1.49085C7.79957 1.49085 8.21719 1.5846 8.56662 1.7721C8.91321 1.96244 9.18025 2.22239 9.36775 2.55193C9.55525 2.88432 9.649 3.26358 9.649 3.68972V9.3829H10.7058V3.60449C10.7058 3.0079 10.5666 2.47523 10.2882 2.00648C10.007 1.54057 9.61207 1.17267 9.10355 0.902783C8.59503 0.635738 7.99844 0.502215 7.31378 0.502215C6.62912 0.502215 6.03253 0.635738 5.524 0.902783C5.01548 1.17267 4.62201 1.54057 4.34361 2.00648C4.06236 2.47523 3.92173 3.0079 3.92173 3.60449L3.92173 6.14348H4.97855Z" fill="#6D28D9"/>
</svg>
