<svg width="8" height="9" viewBox="0 0 8 9" fill="none" xmlns="http://www.w3.org/2000/svg">
<path fill-rule="evenodd" clip-rule="evenodd" d="M1.50288 5.69968L1.50288 3.24592C1.50288 2.81978 1.59663 2.44052 1.78413 2.10814C1.96878 1.77859 2.23583 1.51865 2.58526 1.32831C2.93469 1.14081 3.35231 1.04706 3.8381 1.04706C4.3239 1.04706 4.74151 1.14081 5.09094 1.32831C5.43753 1.51865 5.70458 1.77859 5.89208 2.10814C6.07958 2.44052 6.17333 2.81978 6.17333 3.24592L6.17333 8.9391H7.23015L7.23015 3.16069C7.23015 2.5641 7.09094 2.03143 6.81253 1.56268C6.53128 1.09677 6.1364 0.728875 5.62788 0.458989C5.11935 0.191944 4.52276 0.0584211 3.8381 0.0584211C3.15344 0.0584211 2.55685 0.191944 2.04833 0.458989C1.53981 0.728875 1.14634 1.09677 0.867932 1.56268C0.586682 2.03143 0.446057 2.5641 0.446057 3.16069L0.446057 5.69968H1.50288Z" fill="#6D28D9"/>
</svg>
