<svg width="8" height="9" viewBox="0 0 8 9" fill="none" xmlns="http://www.w3.org/2000/svg">
<path fill-rule="evenodd" clip-rule="evenodd" d="M6.22199 3.29784V5.7516C6.22199 6.17774 6.12824 6.557 5.94074 6.88938C5.75608 7.21893 5.48903 7.47887 5.1396 7.66921C4.79017 7.85671 4.37255 7.95046 3.88676 7.95046C3.40096 7.95046 2.98335 7.85671 2.63392 7.66921C2.28733 7.47887 2.02028 7.21893 1.83278 6.88938C1.64528 6.557 1.55153 6.17774 1.55153 5.7516V0.0584183H0.494713V5.83683C0.494713 6.43342 0.633917 6.96609 0.912326 7.43484C1.19358 7.90075 1.58846 8.26865 2.09699 8.53853C2.60551 8.80558 3.2021 8.9391 3.88676 8.9391C4.57142 8.9391 5.16801 8.80558 5.67653 8.53853C6.18505 8.26865 6.57852 7.90075 6.85693 7.43484C7.13818 6.96609 7.2788 6.43342 7.2788 5.83683V3.29784H6.22199Z" fill="#6D28D9"/>
</svg>
